#!OML:ASF F:\VICON\USERDATA\INSTALL\rory3\rory3.ASF
:FULLY-SPECIFIED
:DEGREES
858
root 2.14134 16.6261 21.9375 398.099 27.9818 -359.907
lowerback -15.8859 -6.53429 9.91055
upperback -13.0578 -9.60954 2.64327
thorax -6.5754 -5.48901 -3.43866
lowerneck 4.35915 -19.559 -18.3955
upperneck 5.82594 -28.6451 20.0755
head 6.66113 -14.2483 6.4702
rclavicle 2.17918e-014 7.95139e-016
rhumerus -32.7184 -378.366 -419.435
rradius 27.1897
rwrist -6.11702
rhand 3.97871 13.2297
rfingers 7.12502
rthumb 29.3954 -14.4654
lclavicle 2.17918e-014 7.95139e-016
lhumerus -30.2567 3.72842 82.1694
lradius 38.14
lwrist -1.02277
lhand -2.17513 14.6008
lfingers 7.12502
lthumb 23.5054 43.1847
rfemur -64.5138 5.45899 381.689
rtibia 41.952
rfoot 136.582 142.781
rtoes 44.5113
lfemur -24.2796 0.217822 -17.9344
ltibia 38.9631
lfoot -209.528 -150.965
ltoes 43.5977
859
root 2.14234 16.6254 21.9379 398.037 28.0327 -359.947
lowerback -15.746 -6.53681 9.92879
upperback -13.1267 -9.59449 2.65108
thorax -6.72917 -5.48923 -3.41098
lowerneck 4.15932 -19.5991 -18.2709
upperneck 6.17385 -28.6654 19.6592
head 6.71891 -14.2418 6.30339
rclavicle 1.20339e-013 2.14687e-014
rhumerus -32.6603 -378.21 -419.603
rradius 27.0374
rwrist -5.79516
rhand 3.85931 13.4114
rfingers 7.12502
rthumb 29.2814 -14.3036
lclavicle 1.20339e-013 2.14687e-014
lhumerus -30.4289 3.91851 81.8828
lradius 37.6737
lwrist -0.826348
lhand -1.95005 15.5197
lfingers 7.12502
lthumb 23.7213 44.0758
rfemur -64.4325 5.32702 381.836
rtibia 41.8822
rfoot 136.776 142.821
rtoes 44.461
lfemur -24.2692 0.127038 -17.8694
ltibia 39.103
lfoot -210.49 -152.289
ltoes 44.9871
860
root 2.14513 16.6249 21.9396 397.993 28.0681 -360.02
lowerback -15.8445 -6.49755 9.99741
upperback -13.0437 -9.5658 2.63407
thorax -6.59486 -5.47363 -3.48642
lowerneck 4.28461 -19.635 -18.1392
upperneck 5.89438 -28.6858 19.7012
head 6.60205 -14.2644 6.32078
rclavicle 1.84373e-014 0
rhumerus -32.5515 -377.307 -420.245
rradius 27.3965
rwrist -6.29997
rhand 3.42976 13.0251
rfingers 7.12502
rthumb 28.8711 -14.7607
lclavicle 1.84373e-014 0
lhumerus -30.4849 3.88619 81.6357
lradius 37.4001
lwrist -0.468368
lhand -1.69847 16.3487
lfingers 7.12502
lthumb 23.9626 44.8732
rfemur -64.3852 5.01755 382.199
rtibia 41.8505
rfoot 137.208 142.974
rtoes 44.3804
lfemur -24.3031 0.227297 -17.8165
ltibia 39.2088
lfoot -210.131 -152.442
ltoes 45.3106
861
root 2.14816 16.6251 21.943 397.9 28.1185 -360.154
lowerback -15.4437 -6.49436 10.1755
upperback -13.3652 -9.51192 2.69256
thorax -7.19839 -5.48709 -3.41812
lowerneck 4.73906 -19.5401 -18.3271
upperneck 5.92516 -28.6065 19.54
head 6.52328 -14.2612 6.3605
rclavicle 7.35503e-015 -2.06736e-014
rhumerus -33.1422 -375.529 -420.772
rradius 28.0644
rwrist -7.21272
rhand 3.11359 12.9347
rfingers 7.12502
rthumb 28.5691 -14.9023
lclavicle 7.35503e-015 -2.06736e-014
lhumerus -31.2495 3.9506 81.4133
lradius 37.0476
lwrist -0.177525
lhand -1.83438 16.5337
lfingers 7.12502
lthumb 23.8322 45.0753
rfemur -64.323 4.58527 382.758
rtibia 41.8522
rfoot 137.815 143.164
rtoes 44.2665
lfemur -24.3711 0.419134 -17.7334
ltibia 39.271
lfoot -206.88 -149.129
ltoes 41.3247
862
root 2.1479 16.6241 21.9459 397.8 28.1601 -360.307
lowerback -15.8573 -6.45862 10.1918
upperback -12.9982 -9.53573 2.73133
thorax -6.55279 -5.46415 -3.48986
lowerneck 4.50052 -19.5615 -18.1601
upperneck 5.57391 -28.5601 19.7234
head 6.44923 -14.2268 6.38857
rclavicle 2.36057e-014 4.01545e-014
rhumerus -32.4988 -375.353 -421.292
rradius 28.027
rwrist -7.14187
rhand 3.03906 13.2813
rfingers 7.12502
rthumb 28.4979 -14.5677
lclavicle 2.36057e-014 4.01545e-014
lhumerus -30.734 4.1732 81.1371
lradius 36.3243
lwrist -0.211362
lhand -2.11277 16.142
lfingers 7.12502
lthumb 23.5652 44.7183
rfemur -64.2296 4.37488 383.174
rtibia 41.8339
rfoot 138.134 143.407
rtoes 44.1314
lfemur -24.4524 0.456846 -17.6089
ltibia 39.3662
lfoot -203.598 -145.648
ltoes 35.086
863
root 2.14888 16.6179 21.9451 397.756 28.1612 -360.418
lowerback -15.841 -6.4078 10.2896
upperback -13.0162 -9.47577 2.71253
thorax -6.59759 -5.4444 -3.55231
lowerneck 4.61996 -19.5035 -18.1638
upperneck 5.56114 -28.4994 19.7615
head 6.42147 -14.2055 6.42624
rclavicle 1.19022e-014 -9.93923e-015
rhumerus -32.3234 -375.242 -421.539
rradius 27.7576
rwrist -6.89626
rhand 2.83887 13.4862
rfingers 7.12502
rthumb 28.3066 -14.3947
lclavicle 1.19022e-014 -9.93923e-015
lhumerus -30.9277 4.39167 80.763
lradius 35.5998
lwrist -0.501463
lhand -2.32325 15.1006
lfingers 7.12502
lthumb 23.3633 43.7026
rfemur -64.2448 4.14493 383.497
rtibia 41.8505
rfoot 138.549 143.62
rtoes 43.8739
lfemur -24.2541 0.217143 -17.4703
ltibia 39.3947
lfoot -210.097 -151.972
ltoes 43.6484
864
root 2.15402 16.6196 21.9505 397.767 28.1723 -360.387
lowerback -15.972 -6.3738 10.3139
upperback -12.9248 -9.45634 2.63389
thorax -6.44045 -5.43234 -3.67528
lowerneck 4.46302 -19.5451 -18.1559
upperneck 5.67662 -28.5676 19.8401
head 6.5081 -14.2234 6.41258
rclavicle -1.98785e-016 1.19271e-015
rhumerus -32.0229 -375.294 -421.881
rradius 27.5415
rwrist -6.84088
rhand 2.45677 13.3634
rfingers 7.12502
rthumb 27.9413 -14.5775
lclavicle -1.98785e-016 1.19271e-015
lhumerus -30.9818 4.60335 80.426
lradius 35.3659
lwrist -0.737521
lhand -2.11084 15.3205
lfingers 7.12502
lthumb 23.5671 43.8965
rfemur -64.246 3.67192 383.83
rtibia 41.8869
rfoot 139.145 143.792
rtoes 43.4379
lfemur -24.3489 0.222298 -17.5447
ltibia 39.4152
lfoot -205.914 -147.35
ltoes 36.8143
865
root 2.15877 16.6149 21.9545 397.758 28.2845 -360.499
lowerback -15.5375 -6.37201 10.5642
upperback -13.379 -9.39718 2.65525
thorax -7.23749 -5.46402 -3.6626
lowerneck 4.92928 -19.4456 -18.337
upperneck 5.96014 -28.5141 19.5765
head 6.49377 -14.2285 6.41173
rclavicle 5.6753e-014 1.82882e-014
rhumerus -32.6934 -374.522 -421.986
rradius 27.7443
rwrist -6.97589
rhand 2.23446 13.285
rfingers 7.12502
rthumb 27.7288 -14.6903
lclavicle 5.6753e-014 1.82882e-014
lhumerus -32.0164 4.78013 80.1449
lradius 35.3811
lwrist -0.800772
lhand -1.71033 16.3624
lfingers 7.12502
lthumb 23.9512 44.8885
rfemur -64.3485 3.27758 384.295
rtibia 42.0479
rfoot 139.439 144.038
rtoes 43.2813
lfemur -24.1137 -0.087046 -17.3397
ltibia 39.2646
lfoot -211.846 -152.112
ltoes 41.9766
866
root 2.15171 16.614 21.948 397.913 27.7751 -360.09
lowerback -15.9284 -6.34212 9.84162
upperback -12.919 -9.36383 2.47497
thorax -6.3757 -5.35687 -3.59083
lowerneck 4.50034 -19.5886 -18.1083
upperneck 5.53663 -28.6227 19.9352
head 6.47751 -14.2537 6.43194
rclavicle 4.03036e-014 -7.15625e-015
rhumerus -32.0099 -374.987 -422.439
rradius 27.7609
rwrist -6.71154
rhand 2.32176 13.7175
rfingers 7.12502
rthumb 27.8123 -14.2444
lclavicle 4.03036e-014 -7.15625e-015
lhumerus -31.1474 5.08401 79.8361
lradius 34.6988
lwrist -0.835396
lhand -1.63862 16.6367
lfingers 7.12502
lthumb 24.02 45.1537
rfemur -64.4801 3.77662 383.364
rtibia 42.1886
rfoot 138.841 144.011
rtoes 43.7725
lfemur -24.1639 0.0541393 -18.0502
ltibia 39.167
lfoot -209.629 -149.327
ltoes 39.1905
867
root 2.12369 16.603 21.9123 398.071 26.4002 -359.075
lowerback -14.3428 -6.46612 8.11204
upperback -13.5604 -9.18426 2.24087
thorax -7.62957 -5.19601 -2.6504
lowerneck 5.046 -19.4705 -18.3626
upperneck 5.74365 -28.5422 19.6568
head 6.42908 -14.2539 6.45064
rclavicle 7.42709e-014 3.18055e-015
rhumerus -32.7495 -374.252 -422.407
rradius 27.991
rwrist -6.61763
rhand 2.56809 13.7273
rfingers 7.12502
rthumb 28.0478 -14.1962
lclavicle 7.42709e-014 3.18055e-015
lhumerus -32.1301 5.39802 79.5649
lradius 34.089
lwrist -1.04494
lhand -1.77919 16.8525
lfingers 7.12502
lthumb 23.8852 45.3872
rfemur -64.6528 5.1878 380.926
rtibia 42.3984
rfoot 137.677 143.594
rtoes 44.5093
lfemur -23.608 -0.278483 -19.6344
ltibia 38.967
lfoot -216.293 -156.56
ltoes 45.3676
